<svg id="Layer_1" data-name="Layer 1" xmlns="http://www.w3.org/2000/svg" xmlns:xlink="http://www.w3.org/1999/xlink" viewBox="0 0 5325.63 4570.2"><defs><style>.cls-1{fill:none;}.cls-2{clip-path:url(#clip-path);}.cls-3{fill:#2750ae;}.cls-4{fill:#42bd50;}</style><clipPath id="clip-path" transform="translate(1658.7 1282.53)"><rect id="SVGID" class="cls-1" width="2000" height="2000" transform="translate(2000 0) rotate(90)"/></clipPath></defs><title>shopfast-background</title><g class="cls-2"><rect class="cls-3" x="-1041.2" y="423.62" width="3116.95" height="467.37" transform="translate(1341 1989.3) rotate(-55.19)"/><rect class="cls-4" x="-606.6" y="696.81" width="3213.07" height="591.1" transform="matrix(0.57, -0.82, 0.82, 0.57, 1273.03, 2529.35)"/><rect class="cls-3" x="-24.94" y="1057.12" width="3086.09" height="467.37" transform="matrix(0.57, -0.82, 0.82, 0.57, 1250.35, 3082.85)"/><rect class="cls-3" x="897.44" y="1405.59" width="2044.76" height="467.37" transform="translate(1136.63 3562.21) rotate(-55.19)"/><rect class="cls-3" x="1379.84" y="1679.16" width="2044.76" height="591.1" transform="translate(1068.24 4102.21) rotate(-55.19)"/><rect class="cls-3" x="1869.02" y="2081.16" width="2044.76" height="467.37" transform="translate(998.89 4649.8) rotate(-55.19)"/><rect class="cls-3" x="-1905.56" y="-543.41" width="2044.76" height="467.37" transform="translate(1534.01 424.51) rotate(-55.19)"/><rect class="cls-3" x="-1423.16" y="-269.84" width="2044.76" height="591.1" transform="translate(1465.62 964.52) rotate(-55.19)"/><rect class="cls-3" x="-933.98" y="132.16" width="2044.76" height="467.37" transform="translate(1396.27 1512.11) rotate(-55.19)"/></g></svg>